<?xml version="1.0" encoding="UTF-8"?>
<svg width="464px" height="175px" viewBox="0 0 464 175" version="1.1" xmlns="http://www.w3.org/2000/svg" xmlns:xlink="http://www.w3.org/1999/xlink">
    <!-- Generator: Sketch 57.1 (83088) - https://sketch.com -->
    <title>Group</title>
    <desc>Created with Sketch.</desc>
    <g id="Page-1" stroke="none" stroke-width="1" fill="none" fill-rule="evenodd">
        <g id="Group" transform="translate(0.000000, 0.904800)">
            <polygon id="Fill-1" fill="#254929" points="416.8923 169.884 358.4253 124.974 358.4253 35.151 416.8923 80.062"></polygon>
            <polygon id="Fill-2" fill="#254929" points="358.6589 34.9758 417.1259 79.8858 417.1259 169.7088 358.6589 124.7988"></polygon>
            <polygon id="Fill-3" fill="#254929" points="358.8913 34.801 417.3583 79.712 417.3583 169.534 358.8913 124.624"></polygon>
            <polygon id="Fill-4" fill="#254929" points="359.1247 34.6263 417.5917 79.5363 417.5917 169.3593 359.1247 124.4493"></polygon>
            <polygon id="Fill-5" fill="#254929" points="359.3571 34.4515 417.8241 79.3615 417.8241 169.1845 359.3571 124.2745"></polygon>
            <polygon id="Fill-6" fill="#254929" points="359.5905 34.2759 418.0575 79.1859 418.0575 169.0089 359.5905 124.0989"></polygon>
            <polygon id="Fill-7" fill="#254929" points="359.823 34.1012 418.29 79.0112 418.29 168.8342 359.823 123.9242"></polygon>
            <polygon id="Fill-8" fill="#254929" points="360.0564 33.9264 418.5234 78.8364 418.5234 168.6594 360.0564 123.7494"></polygon>
            <polygon id="Fill-9" fill="#254929" points="360.2888 33.7516 418.7558 78.6616 418.7558 168.4846 360.2888 123.5746"></polygon>
            <polygon id="Fill-10" fill="#254929" points="360.5222 33.5769 418.9892 78.4869 418.9892 168.3099 360.5222 123.3999"></polygon>
            <polygon id="Fill-11" fill="#254929" points="360.7545 33.4021 419.2215 78.3121 419.2215 168.1351 360.7545 123.2251"></polygon>
            <polygon id="Fill-12" fill="#254929" points="360.9879 33.2272 419.4549 78.1372 419.4549 167.9602 360.9879 123.0502"></polygon>
            <polygon id="Fill-13" fill="#254929" points="361.2204 33.0525 419.6874 77.9625 419.6874 167.7855 361.2204 122.8755"></polygon>
            <polygon id="Fill-14" fill="#254929" points="361.4529 32.8769 419.9199 77.7879 419.9199 167.6099 361.4529 122.6999"></polygon>
            <polygon id="Fill-15" fill="#254929" points="361.6862 32.7021 420.1532 77.6121 420.1532 167.4351 361.6862 122.5251"></polygon>
            <polygon id="Fill-16" fill="#254929" points="361.9187 32.5274 420.3857 77.4374 420.3857 167.2604 361.9187 122.3504"></polygon>
            <polygon id="Fill-17" fill="#254929" points="362.1521 32.3526 420.6191 77.2626 420.6191 167.0856 362.1521 122.1756"></polygon>
            <polygon id="Fill-18" fill="#254929" points="362.3844 32.1778 420.8514 77.0878 420.8514 166.9108 362.3844 122.0008"></polygon>
            <polygon id="Fill-19" fill="#254929" points="362.6179 32.0031 421.0849 76.9141 421.0849 166.7361 362.6179 121.8261"></polygon>
            <polygon id="Fill-20" fill="#254929" points="362.8503 31.8283 421.3173 76.7383 421.3173 166.5613 362.8503 121.6513"></polygon>
            <polygon id="Fill-21" fill="#254929" points="363.0836 31.6527 421.5506 76.5627 421.5506 166.3877 363.0836 121.4757"></polygon>
            <polygon id="Fill-22" fill="#254929" points="363.3161 31.478 421.7831 76.388 421.7831 166.211 363.3161 121.301"></polygon>
            <polygon id="Fill-23" fill="#254929" points="363.5495 31.3031 422.0165 76.2131 422.0165 166.0361 363.5495 121.1261"></polygon>
            <polygon id="Fill-24" fill="#254929" points="363.782 31.1283 422.249 76.0383 422.249 165.8613 363.782 120.9513"></polygon>
            <polygon id="Fill-25" fill="#254929" points="364.0154 30.9537 422.4824 75.8637 422.4824 165.6867 364.0154 120.7767"></polygon>
            <polygon id="Fill-26" fill="#254929" points="364.2478 30.7789 422.7148 75.6889 422.7148 165.5119 364.2478 120.6019"></polygon>
            <polygon id="Fill-27" fill="#254929" points="364.4812 30.604 422.9482 75.514 422.9482 165.337 364.4812 120.427"></polygon>
            <polygon id="Fill-28" fill="#254929" points="364.7136 30.4292 423.1806 75.3392 423.1806 165.1622 364.7136 120.2522"></polygon>
            <polygon id="Fill-29" fill="#254929" points="364.947 30.2537 423.414 75.1637 423.414 164.9867 364.947 120.0767"></polygon>
            <polygon id="Fill-30" fill="#254929" points="365.1794 30.0789 423.6464 74.9889 423.6464 164.8119 365.1794 119.9019"></polygon>
            <polygon id="Fill-31" fill="#254929" points="365.4128 29.9041 423.8798 74.8141 423.8798 164.6371 365.4128 119.7271"></polygon>
            <polygon id="Fill-32" fill="#254929" points="365.6452 29.7294 424.1122 74.6394 424.1122 164.4624 365.6452 119.5524"></polygon>
            <polygon id="Fill-33" fill="#254929" points="365.8786 29.5546 424.3456 74.4646 424.3456 164.2876 365.8786 119.3776"></polygon>
            <polygon id="Fill-34" fill="#254929" points="366.1111 29.3797 424.5781 74.2897 424.5781 164.1127 366.1111 119.2027"></polygon>
            <polygon id="Fill-35" fill="#254929" points="366.3445 29.205 424.8115 74.116 424.8115 163.938 366.3445 119.028"></polygon>
            <polygon id="Fill-36" fill="#254929" points="366.5769 29.0302 425.0439 73.9402 425.0439 163.7632 366.5769 118.8532"></polygon>
            <polygon id="Fill-37" fill="#254929" points="366.8103 28.8546 425.2773 73.7646 425.2773 163.5876 366.8103 118.6776"></polygon>
            <polygon id="Fill-38" fill="#254929" points="367.0427 28.6799 425.5097 73.5899 425.5097 163.4129 367.0427 118.5029"></polygon>
            <polygon id="Fill-39" fill="#254929" points="367.2761 28.5051 425.7431 73.4151 425.7431 163.2381 367.2761 118.3281"></polygon>
            <polygon id="Fill-40" fill="#254929" points="367.5085 28.3303 425.9755 73.2403 425.9755 163.0633 367.5085 118.1533"></polygon>
            <polygon id="Fill-41" fill="#254929" points="367.7419 28.1556 426.2089 73.0656 426.2089 162.8886 367.7419 117.9786"></polygon>
            <polygon id="Fill-42" fill="#254929" points="367.9743 27.9808 426.4413 72.8908 426.4413 162.7138 367.9743 117.8038"></polygon>
            <polygon id="Fill-43" fill="#254929" points="368.2077 27.8059 426.6747 72.7159 426.6747 162.5389 368.2077 117.6289"></polygon>
            <polygon id="Fill-44" fill="#254929" points="368.4402 27.6313 426.9072 72.5413 426.9072 162.3643 368.4402 117.4543"></polygon>
            <polygon id="Fill-45" fill="#254929" points="368.6736 27.4557 427.1406 72.3657 427.1406 162.1887 368.6736 117.2787"></polygon>
            <polygon id="Fill-46" fill="#254929" points="368.906 27.2808 427.373 72.1908 427.373 162.0138 368.906 117.1038"></polygon>
            <polygon id="Fill-47" fill="#254929" points="369.1384 27.1062 427.6064 72.0162 427.6064 161.8392 369.1384 116.9292"></polygon>
            <polygon id="Fill-48" fill="#254929" points="369.3718 26.9313 427.8388 71.8413 427.8388 161.6643 369.3718 116.7543"></polygon>
            <polygon id="Fill-49" fill="#254929" points="369.6042 26.7565 428.0712 71.6665 428.0712 161.4895 369.6042 116.5795"></polygon>
            <polygon id="Fill-50" fill="#254929" points="369.8376 26.5817 428.3046 71.4917 428.3046 161.3147 369.8376 116.4047"></polygon>
            <polygon id="Fill-51" fill="#254929" points="370.0699 26.407 428.5369 71.317 428.5369 161.14 370.0699 116.23"></polygon>
            <polygon id="Fill-52" fill="#254929" points="370.3034 26.2314 428.7704 71.1424 428.7704 160.9644 370.3034 116.0544"></polygon>
            <polygon id="Fill-53" fill="#254929" points="370.5359 26.0567 429.0029 70.9667 429.0029 160.7897 370.5359 115.8797"></polygon>
            <polygon id="Fill-54" fill="#254929" points="370.7693 25.8819 429.2363 70.7919 429.2363 160.6149 370.7693 115.7049"></polygon>
            <polygon id="Fill-55" fill="#254929" points="371.0016 25.7071 429.4686 70.6171 429.4686 160.4401 371.0016 115.5301"></polygon>
            <polygon id="Fill-56" fill="#254929" points="371.235 25.5322 429.702 70.4422 429.702 160.2652 371.235 115.3552"></polygon>
            <polygon id="Fill-57" fill="#254929" points="371.4675 25.3576 429.9345 70.2676 429.9345 160.0906 371.4675 115.1806"></polygon>
            <polygon id="Fill-58" fill="#254929" points="371.7009 25.1827 430.1679 70.0927 430.1679 159.9157 371.7009 115.0057"></polygon>
            <polygon id="Fill-59" fill="#254929" points="371.9333 25.0079 430.4003 69.9179 430.4003 159.7409 371.9333 114.8309"></polygon>
            <polygon id="Fill-60" fill="#254929" points="372.1667 24.8324 430.6337 69.7434 430.6337 159.5654 372.1667 114.6554"></polygon>
            <polygon id="Fill-61" fill="#254929" points="372.399 24.6576 430.866 69.5676 430.866 159.3906 372.399 114.4806"></polygon>
            <polygon id="Fill-62" fill="#254929" points="372.6324 24.4828 431.0994 69.3928 431.0994 159.2158 372.6324 114.3058"></polygon>
            <polygon id="Fill-63" fill="#254929" points="372.865 24.3081 431.332 69.2181 431.332 159.0411 372.865 114.1311"></polygon>
            <polygon id="Fill-64" fill="#254929" points="373.0984 24.1333 431.5654 69.0433 431.5654 158.8663 373.0984 113.9563"></polygon>
            <polygon id="Fill-65" fill="#254929" points="373.3307 23.9585 431.7977 68.8685 431.7977 158.6915 373.3307 113.7815"></polygon>
            <polygon id="Fill-66" fill="#254929" points="373.5641 23.7838 432.0311 68.6938 432.0311 158.5168 373.5641 113.6068"></polygon>
            <polygon id="Fill-67" fill="#254929" points="373.7966 23.6089 432.2636 68.5189 432.2636 158.3419 373.7966 113.4319"></polygon>
            <polygon id="Fill-68" fill="#254929" points="374.03 23.4333 432.497 68.3433 432.497 158.1663 374.03 113.2563"></polygon>
            <polygon id="Fill-69" fill="#254929" points="374.2624 23.2587 432.7294 68.1687 432.7294 157.9917 374.2624 113.0817"></polygon>
            <polygon id="Fill-70" fill="#254929" points="374.4958 23.0838 432.9628 67.9938 432.9628 157.8168 374.4958 112.9068"></polygon>
            <polygon id="Fill-71" fill="#254929" points="374.7281 22.909 433.1951 67.82 433.1951 157.642 374.7281 112.732"></polygon>
            <polygon id="Fill-72" fill="#254929" points="374.9615 22.7344 433.4285 67.6444 433.4285 157.4674 374.9615 112.5574"></polygon>
            <polygon id="Fill-73" fill="#254929" points="375.1941 22.5595 433.6611 67.4695 433.6611 157.2925 375.1941 112.3825"></polygon>
            <polygon id="Fill-74" fill="#254929" points="375.4275 22.3847 433.8945 67.2947 433.8945 157.1177 375.4275 112.2077"></polygon>
            <polygon id="Fill-75" fill="#254929" points="375.6599 22.2092 434.1269 67.1192 434.1269 156.9442 375.6599 112.0322"></polygon>
            <polygon id="Fill-76" fill="#254929" points="375.8932 22.0344 434.3602 66.9444 434.3602 156.7674 375.8932 111.8574"></polygon>
            <polygon id="Fill-77" fill="#254929" points="376.1257 21.8595 434.5927 66.7695 434.5927 156.5925 376.1257 111.6825"></polygon>
            <polygon id="Fill-78" fill="#254929" points="376.3591 21.6847 434.8261 66.5947 434.8261 156.4177 376.3591 111.5077"></polygon>
            <polygon id="Fill-79" fill="#254929" points="376.5915 21.5101 435.0585 66.4201 435.0585 156.2431 376.5915 111.3331"></polygon>
            <polygon id="Fill-80" fill="#254929" points="376.8249 21.3353 435.2919 66.2453 435.2919 156.0683 376.8249 111.1583"></polygon>
            <polygon id="Fill-81" fill="#254929" points="377.0574 21.1604 435.5244 66.0704 435.5244 155.8934 377.0574 110.9834"></polygon>
            <polygon id="Fill-82" fill="#254929" points="377.2898 20.9857 435.7568 65.8957 435.7568 155.7187 377.2898 110.8087"></polygon>
            <polygon id="Fill-83" fill="#254929" points="377.5232 20.8101 435.9902 65.7201 435.9902 155.5431 377.5232 110.6331"></polygon>
            <polygon id="Fill-84" fill="#254929" points="377.7556 20.6353 436.2226 65.5453 436.2226 155.3683 377.7556 110.4583"></polygon>
            <polygon id="Fill-85" fill="#254929" points="377.989 20.4606 436.456 65.3706 436.456 155.1936 377.989 110.2836"></polygon>
            <polygon id="Fill-86" fill="#254929" points="378.2214 20.2858 436.6884 65.1958 436.6884 155.0188 378.2214 110.1088"></polygon>
            <polygon id="Fill-87" fill="#254929" points="378.4548 20.1109 436.9218 65.0219 436.9218 154.8439 378.4548 109.9339"></polygon>
            <polygon id="Fill-88" fill="#254929" points="378.6872 19.9363 437.1542 64.8463 437.1542 154.6693 378.6872 109.7593"></polygon>
            <polygon id="Fill-89" fill="#254929" points="378.9206 19.7614 437.3876 64.6714 437.3876 154.4944 378.9206 109.5844"></polygon>
            <polygon id="Fill-90" fill="#254929" points="379.153 19.5866 437.62 64.4966 437.62 154.3196 379.153 109.4096"></polygon>
            <polygon id="Fill-91" fill="#254929" points="379.3865 19.4112 437.8535 64.3212 437.8535 154.1442 379.3865 109.2342"></polygon>
            <polygon id="Fill-92" fill="#254929" points="379.6189 19.2363 438.0859 64.1463 438.0859 153.9693 379.6189 109.0593"></polygon>
            <polygon id="Fill-93" fill="#254929" points="379.8523 19.0615 438.3193 63.9715 438.3193 153.7945 379.8523 108.8845"></polygon>
            <polygon id="Fill-94" fill="#254929" points="380.0847 18.8868 438.5517 63.7968 438.5517 153.6198 380.0847 108.7098"></polygon>
            <polygon id="Fill-95" fill="#254929" points="380.3181 18.712 438.7851 63.622 438.7851 153.445 380.3181 108.535"></polygon>
            <polygon id="Fill-96" fill="#254929" points="380.5504 18.5372 439.0174 63.4472 439.0174 153.2702 380.5504 108.3602"></polygon>
            <polygon id="Fill-97" fill="#254929" points="380.7839 18.3623 439.2509 63.2723 439.2509 153.0953 380.7839 108.1853"></polygon>
            <polygon id="Fill-98" fill="#254929" points="381.0163 18.1877 439.4833 63.0977 439.4833 152.9207 381.0163 108.0107"></polygon>
            <polygon id="Fill-99" fill="#254929" points="381.2497 18.0121 439.7167 62.9221 439.7167 152.7451 381.2497 107.8351"></polygon>
            <polygon id="Fill-100" fill="#254929" points="381.4821 17.8374 439.9491 62.7474 439.9491 152.5704 381.4821 107.6604"></polygon>
            <polygon id="Fill-101" fill="#254929" points="381.7155 17.6626 440.1825 62.5726 440.1825 152.3956 381.7155 107.4856"></polygon>
            <polygon id="Fill-102" fill="#254929" points="381.948 17.4877 440.415 62.3977 440.415 152.2207 381.948 107.3107"></polygon>
            <polygon id="Fill-103" fill="#254929" points="382.1814 17.3129 440.6484 62.2229 440.6484 152.0459 382.1814 107.1359"></polygon>
            <polygon id="Fill-104" fill="#254929" points="382.4138 17.1382 440.8808 62.0482 440.8808 151.8712 382.4138 106.9612"></polygon>
            <polygon id="Fill-105" fill="#254929" points="382.6472 16.9634 441.1142 61.8734 441.1142 151.6964 382.6472 106.7864"></polygon>
            <polygon id="Fill-106" fill="#254929" points="382.8795 16.7878 441.3465 61.6978 441.3465 151.5228 382.8795 106.6108"></polygon>
            <polygon id="Fill-107" fill="#254929" points="383.1129 16.6131 441.5799 61.5231 441.5799 151.3461 383.1129 106.4361"></polygon>
            <polygon id="Fill-108" fill="#254929" points="383.3454 16.4383 441.8124 61.3483 441.8124 151.1713 383.3454 106.2613"></polygon>
            <polygon id="Fill-109" fill="#254929" points="383.5788 16.2635 442.0458 61.1735 442.0458 150.9965 383.5788 106.0865"></polygon>
            <polygon id="Fill-110" fill="#254929" points="383.8112 16.0888 442.2782 60.9988 442.2782 150.8218 383.8112 105.9118"></polygon>
            <polygon id="Fill-111" fill="#254929" points="384.0446 15.914 442.5116 60.824 442.5116 150.647 384.0446 105.737"></polygon>
            <polygon id="Fill-112" fill="#254929" points="384.2771 15.7391 442.7441 60.6491 442.7441 150.4721 384.2771 105.5621"></polygon>
            <polygon id="Fill-113" fill="#254929" points="384.5105 15.5644 442.9775 60.4744 442.9775 150.2974 384.5105 105.3874"></polygon>
            <polygon id="Fill-114" fill="#254929" points="384.7429 15.3888 443.2099 60.2988 443.2099 150.1218 384.7429 105.2118"></polygon>
            <polygon id="Fill-115" fill="#254929" points="384.9763 15.214 443.4433 60.124 443.4433 149.947 384.9763 105.037"></polygon>
            <polygon id="Fill-116" fill="#254929" points="385.2086 15.0393 443.6756 59.9493 443.6756 149.7723 385.2086 104.8623"></polygon>
            <polygon id="Fill-117" fill="#254929" points="385.4411 14.8645 443.9081 59.7755 443.9081 149.5975 385.4411 104.6875"></polygon>
            <polygon id="Fill-118" fill="#254929" points="385.6745 14.6897 444.1415 59.5997 444.1415 149.4227 385.6745 104.5127"></polygon>
            <polygon id="Fill-119" fill="#254929" points="385.907 14.515 444.374 59.425 444.374 149.248 385.907 104.338"></polygon>
            <polygon id="Fill-120" fill="#254929" points="386.1404 14.3402 444.6074 59.2502 444.6074 149.0732 386.1404 104.1632"></polygon>
            <polygon id="Fill-121" fill="#254929" points="386.3728 14.1653 444.8398 59.0753 444.8398 148.8983 386.3728 103.9883"></polygon>
            <polygon id="Fill-122" fill="#254929" points="386.6062 13.9899 445.0732 58.8999 445.0732 148.7229 386.6062 103.8129"></polygon>
            <polygon id="Fill-123" fill="#254929" points="386.8386 13.815 445.3056 58.725 445.3056 148.548 386.8386 103.638"></polygon>
            <polygon id="Fill-124" fill="#254929" points="387.072 13.6402 445.539 58.5502 445.539 148.3732 387.072 103.4632"></polygon>
            <polygon id="Fill-125" fill="#254929" points="387.3044 13.4654 445.7714 58.3754 445.7714 148.1984 387.3044 103.2884"></polygon>
            <polygon id="Fill-126" fill="#254929" points="387.5378 13.2908 446.0048 58.2008 446.0048 148.0238 387.5378 103.1138"></polygon>
            <polygon id="Fill-127" fill="#254929" points="387.7702 13.1159 446.2372 58.0259 446.2372 147.8489 387.7702 102.9389"></polygon>
            <polygon id="Fill-128" fill="#254929" points="388.0036 12.9411 446.4706 57.8511 446.4706 147.6741 388.0036 102.7641"></polygon>
            <polygon id="Fill-129" fill="#254929" points="388.2361 12.7664 446.7031 57.6764 446.7031 147.4994 388.2361 102.5894"></polygon>
            <polygon id="Fill-130" fill="#254929" points="388.4695 12.5908 446.9365 57.5008 446.9365 147.3238 388.4695 102.4138"></polygon>
            <polygon id="Fill-131" fill="#254929" points="388.7019 12.416 447.1689 57.326 447.1689 147.149 388.7019 102.239"></polygon>
            <polygon id="Fill-132" fill="#254929" points="388.9353 12.2413 447.4023 57.1513 447.4023 146.9743 388.9353 102.0643"></polygon>
            <polygon id="Fill-133" fill="#254929" points="389.1677 12.0665 447.6347 56.9775 447.6347 146.7995 389.1677 101.8895"></polygon>
            <polygon id="Fill-134" fill="#254929" points="389.4011 11.8916 447.8681 56.8016 447.8681 146.6246 389.4011 101.7146"></polygon>
            <polygon id="Fill-135" fill="#254929" points="389.6335 11.7169 448.1005 56.6269 448.1005 146.4499 389.6335 101.5399"></polygon>
            <polygon id="Fill-136" fill="#254929" points="389.8669 11.5421 448.3339 56.4521 448.3339 146.2751 389.8669 101.3651"></polygon>
            <polygon id="Fill-137" fill="#254929" points="390.0993 11.3665 448.5663 56.2765 448.5663 146.0995 390.0993 101.1895"></polygon>
            <polygon id="Fill-138" fill="#254929" points="390.3327 11.1918 448.7997 56.1018 448.7997 145.9248 390.3327 101.0148"></polygon>
            <polygon id="Fill-139" fill="#254929" points="390.5652 11.017 449.0322 55.927 449.0322 145.75 390.5652 100.84"></polygon>
            <polygon id="Fill-140" fill="#254929" points="390.7986 10.8422 449.2656 55.7522 449.2656 145.5752 390.7986 100.6652"></polygon>
            <polygon id="Fill-141" fill="#254929" points="391.031 10.6675 449.498 55.5775 449.498 145.4005 391.031 100.4905"></polygon>
            <polygon id="Fill-142" fill="#254929" points="391.2644 10.4927 449.7314 55.4027 449.7314 145.2257 391.2644 100.3157"></polygon>
            <polygon id="Fill-143" fill="#254929" points="391.4968 10.3178 449.9638 55.2278 449.9638 145.0508 391.4968 100.1408"></polygon>
            <polygon id="Fill-144" fill="#254929" points="391.7302 10.1432 450.1972 55.0532 450.1972 144.8762 391.7302 99.9662"></polygon>
            <polygon id="Fill-145" fill="#254929" points="391.9626 9.9676 450.4296 54.8776 450.4296 144.7006 391.9626 99.7906"></polygon>
            <polygon id="Fill-146" fill="#254929" points="392.196 9.7927 450.663 54.7027 450.663 144.5257 392.196 99.6157"></polygon>
            <polygon id="Fill-147" fill="#254929" points="392.4284 9.6181 450.8954 54.5281 450.8954 144.3511 392.4284 99.4411"></polygon>
            <polygon id="Fill-148" fill="#254929" points="392.6618 9.4432 451.1288 54.3532 451.1288 144.1762 392.6618 99.2662"></polygon>
            <polygon id="Fill-149" fill="#254929" points="392.8943 9.2684 451.3613 54.1784 451.3613 144.0014 392.8943 99.0914"></polygon>
            <polygon id="Fill-150" fill="#254929" points="393.1277 9.0936 451.5947 54.0036 451.5947 143.8266 393.1277 98.9166"></polygon>
            <polygon id="Fill-151" fill="#254929" points="393.36 8.9189 451.827 53.8289 451.827 143.6519 393.36 98.7419"></polygon>
            <polygon id="Fill-152" fill="#254929" points="393.5925 8.7441 452.0595 53.6551 452.0595 143.4771 393.5925 98.5671"></polygon>
            <polygon id="Fill-153" fill="#254929" points="393.8259 8.5685 452.2929 53.4785 452.2929 143.3015 393.8259 98.3915"></polygon>
            <polygon id="Fill-154" fill="#254929" points="394.0583 8.3938 452.5253 53.3038 452.5253 143.1268 394.0583 98.2168"></polygon>
            <polygon id="Fill-155" fill="#254929" points="394.2917 8.219 452.7587 53.129 452.7587 142.952 394.2917 98.042"></polygon>
            <polygon id="Fill-156" fill="#254929" points="394.524 8.0441 452.991 52.9541 452.991 142.7771 394.524 97.8671"></polygon>
            <polygon id="Fill-157" fill="#254929" points="394.7574 7.8695 453.2244 52.7795 453.2244 142.6025 394.7574 97.6925"></polygon>
            <polygon id="Fill-158" fill="#254929" points="394.99 7.6946 453.457 52.6046 453.457 142.4276 394.99 97.5176"></polygon>
            <polygon id="Fill-159" fill="#254929" points="395.2234 7.5198 453.6904 52.4298 453.6904 142.2528 395.2234 97.3428"></polygon>
            <polygon id="Fill-160" fill="#254929" points="395.4557 7.3443 453.9227 52.2543 453.9227 142.0793 395.4557 97.1673"></polygon>
            <polygon id="Fill-161" fill="#254929" points="395.6891 7.1695 454.1561 52.0795 454.1561 141.9025 395.6891 96.9925"></polygon>
            <polygon id="Fill-162" fill="#254929" points="395.9216 6.9947 454.3886 51.9047 454.3886 141.7277 395.9216 96.8177"></polygon>
            <polygon id="Fill-163" fill="#254929" points="396.155 6.82 454.622 51.73 454.622 141.553 396.155 96.643"></polygon>
            <polygon id="Fill-164" fill="#254929" points="396.3874 6.6452 454.8544 51.5552 454.8544 141.3782 396.3874 96.4682"></polygon>
            <polygon id="Fill-165" fill="#254929" points="396.6208 6.4704 455.0878 51.3804 455.0878 141.2034 396.6208 96.2934"></polygon>
            <polygon id="Fill-166" fill="#254929" points="396.8531 6.2957 455.3201 51.2057 455.3201 141.0287 396.8531 96.1187"></polygon>
            <polygon id="Fill-167" fill="#254929" points="397.0865 6.1208 455.5535 51.0308 455.5535 140.8538 397.0865 95.9438"></polygon>
            <polygon id="Fill-168" fill="#254929" points="397.3191 5.9452 455.7861 50.8552 455.7861 140.6782 397.3191 95.7682"></polygon>
            <polygon id="Fill-169" fill="#254929" points="397.5525 5.7706 456.0195 50.6806 456.0195 140.5036 397.5525 95.5936"></polygon>
            <polygon id="Fill-170" fill="#254929" points="397.7849 5.5957 456.2519 50.5057 456.2519 140.3287 397.7849 95.4187"></polygon>
            <polygon id="Fill-171" fill="#254929" points="398.0182 5.4209 456.4852 50.3309 456.4852 140.1539 398.0182 95.2439"></polygon>
            <polygon id="Fill-172" fill="#254929" points="398.2507 5.2463 456.7177 50.1563 456.7177 139.9793 398.2507 95.0693"></polygon>
            <polygon id="Fill-173" fill="#254929" points="398.4841 5.0714 456.9511 49.9814 456.9511 139.8044 398.4841 94.8944"></polygon>
            <polygon id="Fill-174" fill="#254929" points="398.7165 4.8966 457.1835 49.8066 457.1835 139.6296 398.7165 94.7196"></polygon>
            <polygon id="Fill-175" fill="#254929" points="398.9499 4.7218 457.4169 49.6318 457.4169 139.4548 398.9499 94.5448"></polygon>
            <polygon id="Fill-176" fill="#254929" points="399.1824 4.5463 457.6494 49.4563 457.6494 139.2793 399.1824 94.3693"></polygon>
            <polygon id="Fill-177" fill="#254929" points="399.4156 4.3714 457.8826 49.2814 457.8826 139.1044 399.4156 94.1944"></polygon>
            <polygon id="Fill-178" fill="#254929" points="399.6482 4.1966 458.1152 49.1066 458.1152 138.9296 399.6482 94.0196"></polygon>
            <polygon id="Fill-179" fill="#254929" points="399.8816 4.022 458.3486 48.933 458.3486 138.755 399.8816 93.845"></polygon>
            <polygon id="Fill-180" fill="#254929" points="400.114 3.8472 458.581 48.7572 458.581 138.5802 400.114 93.6702"></polygon>
            <polygon id="Fill-181" fill="#254929" points="400.3474 3.6723 458.8144 48.5823 458.8144 138.4053 400.3474 93.4953"></polygon>
            <polygon id="Fill-182" fill="#254929" points="400.5798 3.4977 459.0468 48.4077 459.0468 138.2307 400.5798 93.3207"></polygon>
            <polygon id="Fill-183" fill="#254929" points="400.8132 3.3228 459.2802 48.2328 459.2802 138.0558 400.8132 93.1458"></polygon>
            <polygon id="Fill-184" fill="#254929" points="401.0456 3.1472 459.5126 48.0572 459.5126 137.8802 401.0456 92.9702"></polygon>
            <polygon id="Fill-185" fill="#254929" points="401.278 2.9725 459.746 47.8825 459.746 137.7055 401.278 92.7955"></polygon>
            <polygon id="Fill-186" fill="#254929" points="401.5115 2.7977 459.9785 47.7077 459.9785 137.5307 401.5115 92.6207"></polygon>
            <polygon id="Fill-187" fill="#254929" points="401.7439 2.6228 460.2109 47.5328 460.2109 137.3558 401.7439 92.4458"></polygon>
            <polygon id="Fill-188" fill="#254929" points="401.9773 2.4482 460.4443 47.3582 460.4443 137.1812 401.9773 92.2712"></polygon>
            <polygon id="Fill-189" fill="#254929" points="402.2097 2.2733 460.6767 47.1833 460.6767 137.0063 402.2097 92.0963"></polygon>
            <polygon id="Fill-190" fill="#254929" points="402.4431 2.0986 460.9101 47.0086 460.9101 136.8316 402.4431 91.9216"></polygon>
            <polygon id="Fill-191" fill="#254929" points="402.6754 1.9231 461.1424 46.8331 461.1424 136.6581 402.6754 91.7461"></polygon>
            <polygon id="Fill-192" fill="#254929" points="402.9089 1.7482 461.3759 46.6582 461.3759 136.4812 402.9089 91.5712"></polygon>
            <polygon id="Fill-193" fill="#254929" points="403.1413 1.5734 461.6083 46.4844 461.6083 136.3064 403.1413 91.3964"></polygon>
            <polygon id="Fill-194" fill="#254929" points="403.3747 1.3988 461.8417 46.3088 461.8417 136.1318 403.3747 91.2218"></polygon>
            <polygon id="Fill-195" fill="#254929" points="403.6071 1.2239 462.0741 46.1339 462.0741 135.9569 403.6071 91.0469"></polygon>
            <polygon id="Fill-196" fill="#254929" points="403.8405 1.0491 462.3075 45.9591 462.3075 135.7821 403.8405 90.8721"></polygon>
            <polygon id="Fill-197" fill="#254929" points="404.073 0.8742 462.54 45.7842 462.54 135.6072 404.073 90.6972"></polygon>
            <polygon id="Fill-198" fill="#254929" points="404.3064 0.6995 462.7734 45.6095 462.7734 135.4325 404.3064 90.5225"></polygon>
            <polygon id="Fill-199" fill="#254929" points="404.5388 0.524 463.0058 45.434 463.0058 135.257 404.5388 90.347"></polygon>
            <polygon id="Fill-200" fill="#254929" points="404.7722 0.3493 463.2392 45.2593 463.2392 135.0823 404.7722 90.1723"></polygon>
            <polygon id="Fill-201" fill="#254929" points="405.0045 0.1744 463.4715 45.0854 463.4715 134.9074 405.0045 89.9974"></polygon>
            <polygon id="Fill-202" fill="#254929" points="463.7048 134.733 405.2378 89.823 405.2378 0 463.7048 44.911"></polygon>
            <polygon id="Fill-203" fill="#A4AF3A" points="416.8923 169.884 299.9583 169.884 299.9583 80.062 358.4253 35.417 416.8923 80.062"></polygon>
            <polygon id="Fill-204" fill="#FFFFFE" points="421.0094 173.4006 361.5504 120.5416 358.4254 28.3176 420.0174 75.6296"></polygon>
            <polygon id="Fill-205" fill="#1F6334" points="416.8923 169.884 358.4253 124.974 358.4253 35.151 416.8923 80.062"></polygon>
            <polygon id="Fill-206" fill="#254929" points="38.0884 89.7046 11.1594 89.7046 11.1594 102.0896 35.8794 102.0896 35.8794 112.2196 11.1594 112.2196 11.1594 127.2156 39.3314 127.2156 39.3314 137.7006 0.7684 137.7006 0.7684 79.3776 38.0884 79.3776"></polygon>
            <g id="Group-233" transform="translate(0.000000, 77.095200)">
                <path d="M64.8989,16.4678 C65.0249,16.4818 65.3079,16.5008 65.7449,16.5278 L65.7449,28.0808 C65.1239,28.0018 64.5709,27.9488 64.0879,27.9228 C63.6049,27.8968 63.2129,27.8828 62.9139,27.8828 C58.9549,27.8828 56.2969,29.3608 54.9389,32.3148 C54.1799,33.9768 53.7999,36.5348 53.7999,39.9908 L53.7999,60.6058 L43.8919,60.6058 L43.8919,17.4768 L53.2819,17.4768 L53.2819,24.9938 C54.8009,22.1198 56.1239,20.1548 57.2519,19.0988 C59.0929,17.3318 61.4869,16.4478 64.4329,16.4478 C64.6169,16.4478 64.7729,16.4548 64.8989,16.4678" id="Fill-207" fill="#254929"></path>
                <path d="M68.82,60.606 L78.797,60.606 L78.797,17.477 L68.82,17.477 L68.82,60.606 Z M68.82,12.333 L78.797,12.333 L78.797,1.927 L68.82,1.927 L68.82,12.333 Z" id="Fill-209" fill="#254929"></path>
                <polygon id="Fill-211" fill="#254929" points="85.3945 2.48 95.0615 2.48 95.0615 33.943 107.4715 17.675 119.7065 17.675 106.2185 33.741 120.2285 60.605 108.2535 60.605 99.1365 42.179 95.0615 47.034 95.0615 60.605 85.3945 60.605"></polygon>
                <path d="M165.5352,51.3848 C166.1572,51.1998 166.9512,50.8698 167.9182,50.3948 L162.7672,44.7788 L168.2302,38.2418 L173.4022,43.8238 C174.2072,41.9258 174.7712,40.2638 175.0932,38.8388 C175.5992,36.7028 175.8522,34.2108 175.8522,31.3628 C175.8522,24.8218 174.6832,19.7638 172.3472,16.1908 C170.0122,12.6158 166.5992,10.8288 162.1112,10.8288 C157.8992,10.8288 154.5392,12.5438 152.0312,15.9728 C149.5212,19.4028 148.2672,24.5328 148.2672,31.3648 C148.2672,39.3578 150.0632,45.0818 153.6552,48.5368 C155.9802,50.7808 158.7662,51.9008 162.0132,51.9008 C163.2332,51.9008 164.4072,51.7288 165.5352,51.3848 M184.8282,43.5518 C183.9332,46.8968 182.6142,49.6748 180.8712,51.8858 L186.7132,58.1928 L181.1682,64.8228 L175.0572,58.1758 C173.1902,59.4738 171.5782,60.3878 170.2192,60.9168 C167.9382,61.7908 165.2082,62.2278 162.0302,62.2278 C155.3952,62.2278 149.9122,59.9598 145.5812,55.4218 C140.3292,49.9618 137.7032,41.9438 137.7032,31.3648 C137.7032,20.7078 140.3962,12.6488 145.7822,7.1888 C150.1782,2.7308 155.6432,0.5018 162.1812,0.5018 C168.7632,0.5018 174.2862,2.8628 178.7522,7.5848 C183.9072,13.0448 186.4852,20.6818 186.4852,30.4938 C186.4852,35.6918 185.9332,40.0438 184.8282,43.5518" id="Fill-212" fill="#254929"></path>
                <path d="M200.7812,17.4766 L200.7812,43.4726 C200.7812,45.9256 201.0332,47.7726 201.5372,49.0126 C202.4302,51.2026 204.1812,52.2966 206.7922,52.2966 C210.1362,52.2966 212.4262,50.7406 213.6632,47.6266 C214.3042,45.9396 214.6242,43.7096 214.6242,40.9406 L214.6242,17.4766 L224.6032,17.4766 L224.6032,60.6056 L215.0392,60.6056 L215.0392,54.5126 C214.9482,54.6446 214.7182,55.0396 214.3512,55.6996 C213.9842,56.3596 213.5482,56.9396 213.0432,57.4406 C211.5052,59.0236 210.0192,60.1046 208.5842,60.6846 C207.1502,61.2646 205.4682,61.5556 203.5412,61.5556 C197.9872,61.5556 194.2462,59.2606 192.3182,54.6706 C191.2392,52.1376 190.7002,48.4066 190.7002,43.4726 L190.7002,17.4766 L200.7812,17.4766 Z" id="Fill-213" fill="#254929"></path>
                <path d="M231.476,60.606 L241.454,60.606 L241.454,17.477 L231.476,17.477 L231.476,60.606 Z M231.475,12.333 L241.453,12.333 L241.453,1.927 L231.475,1.927 L231.475,12.333 Z" id="Fill-214" fill="#254929"></path>
                <path d="M257.9561,28.0918 C256.5651,29.7348 255.6921,31.9598 255.3351,34.7678 L272.2861,34.7678 C272.1071,31.7748 271.2331,29.5028 269.6651,27.9528 C268.0971,26.4038 266.1511,25.6278 263.8301,25.6278 C261.3041,25.6278 259.3471,26.4488 257.9561,28.0918 M272.6761,18.3508 C275.3011,19.6978 277.4691,21.8248 279.1791,24.7308 C280.7201,27.2928 281.7201,30.2658 282.1771,33.6468 C282.4411,35.6288 282.5501,38.4818 282.5011,42.2068 L255.0941,42.2068 C255.2461,46.5328 256.5581,49.5668 259.0281,51.3078 C260.5311,52.3898 262.3401,52.9298 264.4541,52.9298 C266.6951,52.9298 268.5171,52.2708 269.9171,50.9508 C270.6811,50.2388 271.3561,49.2498 271.9421,47.9838 L281.9871,47.9838 C281.7231,50.5418 280.5071,53.1408 278.3401,55.7788 C274.9691,59.9728 270.2501,62.0698 264.1831,62.0698 C259.1741,62.0698 254.7561,60.3008 250.9281,56.7638 C247.0991,53.2258 245.1851,47.4698 245.1851,39.4958 C245.1851,32.0258 246.9131,26.2958 250.3691,22.3098 C253.8241,18.3228 258.3101,16.3288 263.8261,16.3288 C267.1011,16.3288 270.0511,17.0028 272.6761,18.3508" id="Fill-215" fill="#254929"></path>
                <polygon id="Fill-216" fill="#254929" points="284.855 60.605 294.694 60.605 294.694 2.282 284.855 2.282"></polygon>
                <polygon id="Fill-217" fill="#254929" points="17.8433 92.4238 17.8433 73.1948 19.6283 73.1948 19.6283 81.4468 30.8093 81.4468 30.8093 73.1948 32.5943 73.1948 32.5943 92.4238 30.8093 92.4238 30.8093 82.9958 19.6283 82.9958 19.6283 92.4238"></polygon>
                <path d="M45.4282,91.3818 C46.6532,91.3818 47.7072,91.1468 48.5912,90.6748 C49.4742,90.2028 50.2002,89.5748 50.7692,88.7918 C51.3382,88.0078 51.7582,87.1008 52.0292,86.0678 C52.3002,85.0348 52.4362,83.9568 52.4362,82.8358 C52.4362,81.4998 52.2742,80.3028 51.9502,79.2428 C51.6262,78.1848 51.1582,77.2798 50.5462,76.5318 C49.9332,75.7848 49.1902,75.2148 48.3152,74.8228 C47.4402,74.4318 46.4602,74.2358 45.3762,74.2358 C44.1682,74.2358 43.1222,74.4758 42.2392,74.9568 C41.3552,75.4378 40.6292,76.0738 40.0602,76.8658 C39.4922,77.6588 39.0722,78.5708 38.8012,79.6038 C38.5292,80.6368 38.3942,81.7138 38.3942,82.8358 C38.3942,83.9758 38.5292,85.0618 38.8012,86.0938 C39.0722,87.1268 39.4922,88.0348 40.0602,88.8188 C40.6292,89.6018 41.3552,90.2248 42.2392,90.6878 C43.1222,91.1518 44.1852,91.3818 45.4282,91.3818 M36.6092,82.8358 C36.6092,81.4298 36.7972,80.1108 37.1742,78.8828 C37.5502,77.6538 38.1052,76.5818 38.8402,75.6648 C39.5752,74.7478 40.4852,74.0228 41.5702,73.4878 C42.6552,72.9538 43.9062,72.6868 45.3232,72.6868 C46.7932,72.6868 48.0832,72.9488 49.1952,73.4748 C50.3052,73.9998 51.2332,74.7208 51.9762,75.6378 C52.7202,76.5548 53.2802,77.6318 53.6572,78.8688 C54.0322,80.1078 54.2202,81.4298 54.2202,82.8358 C54.2202,84.2248 54.0322,85.5288 53.6572,86.7478 C53.2802,87.9678 52.7242,89.0358 51.9902,89.9528 C51.2552,90.8698 50.3362,91.5958 49.2342,92.1298 C48.1322,92.6638 46.8542,92.9318 45.4022,92.9318 C43.9492,92.9318 42.6722,92.6638 41.5702,92.1298 C40.4682,91.5958 39.5492,90.8698 38.8142,89.9528 C38.0792,89.0358 37.5282,87.9678 37.1602,86.7478 C36.7932,85.5288 36.6092,84.2248 36.6092,82.8358" id="Fill-218" fill="#254929"></path>
                <polygon id="Fill-219" fill="#254929" points="58.1846 92.4238 58.1846 73.1948 60.9136 73.1948 67.1086 90.1528 67.1606 90.1528 73.2496 73.1948 75.9536 73.1948 75.9536 92.4238 74.1686 92.4238 74.1686 75.2778 74.1166 75.2778 67.9216 92.4238 66.2426 92.4238 60.0216 75.2778 59.9696 75.2778 59.9696 92.4238"></polygon>
                <polygon id="Fill-220" fill="#254929" points="80.6514 92.4238 80.6514 73.1948 93.2234 73.1948 93.2234 74.7428 82.4364 74.7428 82.4364 81.6878 92.1734 81.6878 92.1734 83.2358 82.4364 83.2358 82.4364 90.8748 93.4854 90.8748 93.4854 92.4238"></polygon>
                <polygon id="Fill-221" fill="#254929" points="105.638 92.423 107.423 92.423 107.423 73.194 105.638 73.194"></polygon>
                <polygon id="Fill-222" fill="#254929" points="112.7246 92.4238 112.7246 73.1948 115.4536 73.1948 121.6486 90.1528 121.7006 90.1528 127.7896 73.1948 130.4936 73.1948 130.4936 92.4238 128.7086 92.4238 128.7086 75.2778 128.6566 75.2778 122.4616 92.4238 120.7826 92.4238 114.5616 75.2778 114.5096 75.2778 114.5096 92.4238"></polygon>
                <path d="M140.9922,82.3818 C141.8322,82.3818 142.5842,82.3278 143.2492,82.2218 C143.9142,82.1138 144.4782,81.9138 144.9422,81.6198 C145.4052,81.3258 145.7642,80.9258 146.0182,80.4188 C146.2712,79.9108 146.3992,79.2478 146.3992,78.4288 C146.3992,77.2178 146.0092,76.3018 145.2312,75.6778 C144.4522,75.0548 143.2142,74.7428 141.5172,74.7428 L136.8972,74.7428 L136.8972,82.3818 L140.9922,82.3818 Z M135.1132,92.4238 L135.1132,73.1938 L142.0152,73.1938 C143.2402,73.1938 144.2502,73.3368 145.0472,73.6208 C145.8432,73.9058 146.4732,74.2978 146.9372,74.7968 C147.4002,75.2948 147.7242,75.8688 147.9082,76.5198 C148.0922,77.1688 148.1832,77.8508 148.1832,78.5628 C148.1832,79.6308 147.9692,80.5118 147.5402,81.2058 C147.1112,81.9018 146.5562,82.4478 145.8742,82.8488 C145.1912,83.2498 144.4172,83.5298 143.5512,83.6908 C142.6852,83.8508 141.8142,83.9308 140.9392,83.9308 L136.8972,83.9308 L136.8972,92.4238 L135.1132,92.4238 Z" id="Fill-223" fill="#254929"></path>
                <path d="M159.0757,82.1416 C159.7407,82.1416 160.3577,82.0706 160.9267,81.9276 C161.4947,81.7856 161.9897,81.5586 162.4087,81.2456 C162.8287,80.9356 163.1607,80.5386 163.4067,80.0576 C163.6517,79.5776 163.7737,78.9986 163.7737,78.3226 C163.7737,77.6106 163.6467,77.0226 163.3937,76.5596 C163.1397,76.0966 162.7987,75.7316 162.3697,75.4636 C161.9407,75.1976 161.4507,75.0096 160.8997,74.9036 C160.3487,74.7966 159.7757,74.7436 159.1807,74.7436 L153.5117,74.7436 L153.5117,82.1416 L159.0757,82.1416 Z M153.5117,83.6906 L153.5117,92.4236 L151.7267,92.3976 L151.7267,73.1946 L159.1287,73.1946 C161.2107,73.1946 162.8027,73.5906 163.9057,74.3826 C165.0077,75.1746 165.5587,76.4616 165.5587,78.2426 C165.5587,79.4536 165.3177,80.4136 164.8367,81.1256 C164.3557,81.8386 163.5727,82.4446 162.4877,82.9426 C163.0477,83.1386 163.4857,83.4226 163.8007,83.7966 C164.1157,84.1706 164.3517,84.5986 164.5087,85.0796 C164.6667,85.5596 164.7667,86.0676 164.8107,86.6016 C164.8537,87.1356 164.8847,87.6526 164.9027,88.1506 C164.9197,88.8806 164.9507,89.4866 164.9947,89.9666 C165.0377,90.4476 165.0907,90.8386 165.1517,91.1416 C165.2127,91.4446 165.2867,91.6806 165.3747,91.8496 C165.4627,92.0186 165.5677,92.1486 165.6897,92.2376 L165.6897,92.3976 L163.7217,92.4236 C163.5287,92.1036 163.3937,91.6586 163.3147,91.0886 C163.2357,90.5186 163.1747,89.9226 163.1307,89.2986 C163.0867,88.6756 163.0527,88.0706 163.0257,87.4826 C162.9997,86.8956 162.9507,86.4136 162.8817,86.0406 C162.7767,85.5246 162.6057,85.1106 162.3697,84.7986 C162.1337,84.4876 161.8487,84.2506 161.5167,84.0906 C161.1837,83.9306 160.8117,83.8246 160.4017,83.7706 C159.9897,83.7166 159.5657,83.6906 159.1287,83.6906 L153.5117,83.6906 Z" id="Fill-224" fill="#254929"></path>
                <path d="M177.8682,91.3818 C179.0932,91.3818 180.1472,91.1468 181.0312,90.6748 C181.9142,90.2028 182.6402,89.5748 183.2092,88.7918 C183.7782,88.0078 184.1982,87.1008 184.4692,86.0678 C184.7402,85.0348 184.8762,83.9568 184.8762,82.8358 C184.8762,81.4998 184.7142,80.3028 184.3902,79.2428 C184.0662,78.1848 183.5982,77.2798 182.9862,76.5318 C182.3732,75.7848 181.6302,75.2148 180.7552,74.8228 C179.8802,74.4318 178.9002,74.2358 177.8162,74.2358 C176.6082,74.2358 175.5622,74.4758 174.6792,74.9568 C173.7952,75.4378 173.0692,76.0738 172.5002,76.8658 C171.9322,77.6588 171.5122,78.5708 171.2412,79.6038 C170.9692,80.6368 170.8342,81.7138 170.8342,82.8358 C170.8342,83.9758 170.9692,85.0618 171.2412,86.0938 C171.5122,87.1268 171.9322,88.0348 172.5002,88.8188 C173.0692,89.6018 173.7952,90.2248 174.6792,90.6878 C175.5622,91.1518 176.6252,91.3818 177.8682,91.3818 M169.0492,82.8358 C169.0492,81.4298 169.2372,80.1108 169.6142,78.8828 C169.9902,77.6538 170.5452,76.5818 171.2802,75.6648 C172.0152,74.7478 172.9252,74.0228 174.0102,73.4878 C175.0952,72.9538 176.3462,72.6868 177.7632,72.6868 C179.2332,72.6868 180.5232,72.9488 181.6352,73.4748 C182.7452,73.9998 183.6732,74.7208 184.4162,75.6378 C185.1602,76.5548 185.7202,77.6318 186.0972,78.8688 C186.4722,80.1078 186.6602,81.4298 186.6602,82.8358 C186.6602,84.2248 186.4722,85.5288 186.0972,86.7478 C185.7202,87.9678 185.1642,89.0358 184.4302,89.9528 C183.6952,90.8698 182.7762,91.5958 181.6742,92.1298 C180.5722,92.6638 179.2942,92.9318 177.8422,92.9318 C176.3892,92.9318 175.1122,92.6638 174.0102,92.1298 C172.9082,91.5958 171.9892,90.8698 171.2542,89.9528 C170.5192,89.0358 169.9682,87.9678 169.6002,86.7478 C169.2332,85.5288 169.0492,84.2248 169.0492,82.8358" id="Fill-225" fill="#254929"></path>
                <polygon id="Fill-226" fill="#254929" points="189.0498 73.1943 190.9128 73.1943 196.6088 90.2873 202.2778 73.1943 204.1418 73.1943 197.5798 92.4233 195.6118 92.4233"></polygon>
                <polygon id="Fill-227" fill="#254929" points="207.2383 92.4238 207.2383 73.1948 219.8103 73.1948 219.8103 74.7428 209.0233 74.7428 209.0233 81.6878 218.7613 81.6878 218.7613 83.2358 209.0233 83.2358 209.0233 90.8748 220.0733 90.8748 220.0733 92.4238"></polygon>
                <polygon id="Fill-228" fill="#254929" points="223.7202 92.4238 223.7202 73.1948 226.4502 73.1948 232.6442 90.1528 232.6972 90.1528 238.7872 73.1948 241.4902 73.1948 241.4902 92.4238 239.7052 92.4238 239.7052 75.2778 239.6532 75.2778 233.4592 92.4238 231.7792 92.4238 225.5582 75.2778 225.5052 75.2778 225.5052 92.4238"></polygon>
                <polygon id="Fill-229" fill="#254929" points="246.1885 92.4238 246.1885 73.1948 258.7605 73.1948 258.7605 74.7428 247.9735 74.7428 247.9735 81.6878 257.7105 81.6878 257.7105 83.2358 247.9735 83.2358 247.9735 90.8748 259.0235 90.8748 259.0235 92.4238"></polygon>
                <polygon id="Fill-230" fill="#254929" points="264.5352 75.6514 264.4822 75.6514 264.4822 92.4234 262.6972 92.4234 262.6972 73.1944 264.7192 73.1944 275.6372 89.9934 275.6892 89.9934 275.6892 73.1944 277.4742 73.1944 277.4742 92.4234 275.4012 92.4234"></polygon>
                <polygon id="Fill-231" fill="#254929" points="280.5186 73.1943 294.2716 73.1943 294.2716 74.7433 288.2886 74.7433 288.2886 92.4233 286.5026 92.4233 286.5026 74.7433 280.5186 74.7433"></polygon>
                <polygon id="Fill-232" fill="#A4AF3A" points="0.798 94.305 10.467 94.305 10.467 72.15 0.798 72.15"></polygon>
            </g>
        </g>
    </g>
</svg>